<svg width="100" height="100" viewBox="0 0 100 100" xmlns="http://www.w3.org/2000/svg">
  <defs>
    <linearGradient id="redGradient" x1="0%" y1="0%" x2="100%" y2="100%">
      <stop offset="0%" style="stop-color:#DC2626;stop-opacity:1" />
      <stop offset="100%" style="stop-color:#B91C1C;stop-opacity:1" />
    </linearGradient>
  </defs>
  
  <!-- Background Circle -->
  <circle cx="50" cy="50" r="45" fill="url(#redGradient)" stroke="white" stroke-width="2"/>
  
  <!-- Rooster Head -->
  <path d="M35 40 Q40 35 45 40 Q50 45 55 40 Q60 35 65 40 Q65 50 60 55 Q55 60 50 58 Q45 60 40 55 Q35 50 35 40" 
        fill="white" stroke="white" stroke-width="1"/>
  
  <!-- Rooster Comb -->
  <path d="M40 35 Q45 30 50 32 Q55 30 60 35 Q58 38 55 36 Q50 38 45 36 Q42 38 40 35" 
        fill="white"/>
  
  <!-- Rooster Beak -->
  <path d="M48 45 L52 45 L50 48 Z" fill="white"/>
  
  <!-- Rooster Eye -->
  <circle cx="52" cy="42" r="1.5" fill="white"/>
  
  <!-- Stars -->
  <path d="M25 45 L27 47 L29 45 L27 43 Z" fill="white"/>
  <path d="M71 45 L73 47 L75 45 L73 43 Z" fill="white"/>
  
  <!-- Text -->
  <text x="50" y="75" text-anchor="middle" fill="white" font-family="Arial, sans-serif" font-size="8" font-weight="bold">AL-REEM</text>
  <text x="50" y="85" text-anchor="middle" fill="white" font-family="Arial, sans-serif" font-size="6">MANDI</text>
</svg>
